<svg xmlns="http://www.w3.org/2000/svg" shape-rendering="crispEdges" viewBox="0.36 -12.74 101.27 101.27">
  <path fill="#a63c06" d="M66.415 79.72h4.4v4.4h-4.4zm-4.41 0h4.4v4.4h-4.4zm-26.42 0h4.4v4.4h-4.4zm-4.4 0h4.4v4.4h-4.4z"/>
  <path fill="#b55608" d="M97.235 22.48h4.4v4.4h-4.4zm0-4.4h4.4v4.4h-4.4zm-4.41 8.81h4.4v4.4h-4.4zM84.025.47h4.4v4.4h-4.4zm-4.4 35.22h4.4v4.4h-4.4zm0-30.82h4.4v4.4h-4.4zM66.415 48.9h4.4v4.4h-4.4zm-4.41 4.41h4.4v4.4h-4.4zm-4.4 13.21h4.4v4.4h-4.4zm0-4.41h4.4v4.4h-4.4zm0-4.4h4.4v4.4h-4.4zm0-4.4h4.4v4.4h-4.4zm-4.4 0h4.4v4.4h-4.4zm0-52.84h4.4v4.4h-4.4zm-4.41 52.84h4.4v4.4h-4.4zm0-52.84h4.4v4.4h-4.4zm-4.4 52.84h4.4v4.4h-4.4zm0-52.84h4.4v4.4h-4.4zm-4.4 66.05h4.4v4.4h-4.4zm0-4.41h4.4v4.4h-4.4zm0-4.4h4.4v4.4h-4.4zm0-4.4h4.4v4.4h-4.4zm0-52.84h4.4v4.4h-4.4zm-4.41 52.84h4.4v4.4h-4.4zm0-52.84h4.4v4.4h-4.4zm-4.4 48.43h4.4v4.4h-4.4zm0-48.43h4.4v4.4h-4.4zm-4.4 44.03h4.4v4.4h-4.4zm0-44.03h4.4v4.4h-4.4zm-4.4 39.63h4.4v4.4h-4.4zm0-4.41h4.4v4.4h-4.4zm0-4.4h4.4v4.4h-4.4zm0-4.4h4.4v4.4h-4.4zm0-4.41h4.4v4.4h-4.4zm0-4.4h4.4v4.4h-4.4zm0-4.4h4.4v4.4h-4.4zm0-4.4h4.4v4.4h-4.4zm-4.41 26.41h4.4v4.4h-4.4zm-4.4 0h4.4v4.4h-4.4zm-4.4-4.4h4.4v4.4h-4.4zm-4.41-4.4h4.4v4.4h-4.4zm0-26.42h4.4v4.4h-4.4zm-4.4 22.01h4.4v4.4h-4.4zm0-4.4h4.4v4.4h-4.4zm0-4.4h4.4v4.4h-4.4zm0-4.4h4.4v4.4h-4.4zm0-4.41h4.4v4.4h-4.4z"/>
  <path fill="#c36f09" d="M97.235 13.68h4.4v4.4h-4.4zm0-4.4h4.4v4.4h-4.4zm0-4.41h4.4v4.4h-4.4zm-4.41-4.4h4.4v4.4h-4.4zm-4.4 30.82h4.4v4.4h-4.4zm0-30.82h4.4v4.4h-4.4zm-4.4 35.22h4.4v4.4h-4.4zm-13.21 8.81h4.4v4.4h-4.4zm4.4-4.4h4.4v4.4h-4.4zm0-4.41h4.4v4.4h-4.4zm0-4.4h4.4v4.4h-4.4zm0-4.4h4.4v4.4h-4.4zm0-4.41h4.4v4.4h-4.4zm0-4.4h4.4v4.4h-4.4zm0-4.4h4.4v4.4h-4.4zm0-4.4h4.4v4.4h-4.4zm0-4.41h4.4v4.4h-4.4zm-4.4-4.4h4.4v4.4h-4.4z"/>
  <path fill="#c36f09" d="M66.415.47h4.4v4.4h-4.4zm-8.81 79.25h4.4v4.4h-4.4zm4.4-79.25h4.4v4.4h-4.4zm-4.4 0h4.4v4.4h-4.4zm-4.4 74.85h4.4v4.4h-4.4zm-4.41 0h4.4v4.4h-4.4zm-4.4 0h4.4v4.4h-4.4zm-4.4 4.4h4.4v4.4h-4.4zM22.385 4.87h4.4v4.4h-4.4zm-4.41 0h4.4v4.4h-4.4zm-4.4-4.4h4.4v4.4h-4.4zm-4.4 0h4.4v4.4h-4.4z"/>
  <path fill="#da914d" d="M62.005 75.32h4.4v4.4h-4.4zm-4.4 0h4.4v4.4h-4.4zm-4.4 4.4h4.4v4.4h-4.4zm-4.41 0h4.4v4.4h-4.4zm-4.4 0h4.4v4.4h-4.4zm-4.4-4.4h4.4v4.4h-4.4zm-4.41 0h4.4v4.4h-4.4z"/>
  <path fill="#ffcf33" d="M44.395 66.52h4.4v4.4h-4.4zm0-4.41h4.4v4.4h-4.4zm0-4.4h4.4v4.4h-4.4zm-4.4-8.81h4.4v4.4h-4.4zm0-4.4h4.4v4.4h-4.4zm0-4.4h4.4v4.4h-4.4zm0-4.41h4.4v4.4h-4.4zm0-4.4h4.4v4.4h-4.4zm0-4.4h4.4v4.4h-4.4zm0-4.41h4.4v4.4h-4.4zm0-4.4h4.4v4.4h-4.4zm0-4.4h4.4v4.4h-4.4zm0-4.4h4.4v4.4h-4.4zm0-4.41h4.4v4.4h-4.4zm-4.41 35.23h4.4v4.4h-4.4zm0-4.41h4.4v4.4h-4.4zm0-4.4h4.4v4.4h-4.4zm0-4.4h4.4v4.4h-4.4zm0-4.41h4.4v4.4h-4.4zm0-4.4h4.4v4.4h-4.4zm0-4.4h4.4v4.4h-4.4zm0-4.4h4.4v4.4h-4.4zm0-4.41h4.4v4.4h-4.4zm-4.4 22.02h4.4v4.4h-4.4zm0-4.41h4.4v4.4h-4.4zm0-4.4h4.4v4.4h-4.4zm0-4.4h4.4v4.4h-4.4zm0-4.4h4.4v4.4h-4.4zm0-4.41h4.4v4.4h-4.4zm-4.4 8.81h4.4v4.4h-4.4zm0-4.4h4.4v4.4h-4.4zm0-4.41h4.4v4.4h-4.4zm-8.81 26.42h4.4v4.4h-4.4zm0-17.61h4.4v4.4h-4.4zm-4.4-4.4h4.4v4.4h-4.4zm-4.4 0h4.4v4.4h-4.4zm-4.41 8.8h4.4v4.4h-4.4zm0-4.4h4.4v4.4h-4.4zm0-4.4h4.4v4.4h-4.4z"/>
  <path fill="#ffc60a" d="M88.425 22.48h4.4v4.4h-4.4zm0-13.2h4.4v4.4h-4.4zm-4.4 17.61h4.4v4.4h-4.4zM35.585 48.9h4.4v4.4h-4.4zm0-4.4h4.4v4.4h-4.4zm-4.4 0h4.4v4.4h-4.4zm0-4.4h4.4v4.4h-4.4zm0-4.41h4.4v4.4h-4.4zm0-4.4h4.4v4.4h-4.4zm-4.4 8.81h4.4v4.4h-4.4zm0-4.41h4.4v4.4h-4.4zm0-4.4h4.4v4.4h-4.4zm0-4.4h4.4v4.4h-4.4zm0-4.41h4.4v4.4h-4.4zm0-4.4h4.4v4.4h-4.4zm-13.21 13.21h4.4v4.4h-4.4zm-4.4-4.4h4.4v4.4h-4.4zm-4.41-4.41h4.4v4.4h-4.4z"/>
  <path fill="#ffd95c" d="M88.425 26.89h4.4v4.4h-4.4zm-4.4 4.4h4.4v4.4h-4.4zm0-22.01h4.4v4.4h-4.4zm-4.4 22.01h4.4v4.4h-4.4zm0-17.61h4.4v4.4h-4.4zm0-4.4h4.4v4.4h-4.4zM53.205 48.9h4.4v4.4h-4.4zm0-4.4h4.4v4.4h-4.4zm0-4.4h4.4v4.4h-4.4zm0-4.41h4.4v4.4h-4.4zm0-4.4h4.4v4.4h-4.4zm0-4.4h4.4v4.4h-4.4zm0-4.41h4.4v4.4h-4.4zm0-4.4h4.4v4.4h-4.4zm0-4.4h4.4v4.4h-4.4zm0-4.4h4.4v4.4h-4.4zm0-4.41h4.4v4.4h-4.4zm-4.41 61.65h4.4v4.4h-4.4zm0-4.41h4.4v4.4h-4.4zm0-4.4h4.4v4.4h-4.4zm0-8.81h4.4v4.4h-4.4zm0-4.4h4.4v4.4h-4.4zm0-4.4h4.4v4.4h-4.4zm0-4.41h4.4v4.4h-4.4zm0-4.4h4.4v4.4h-4.4zm0-4.4h4.4v4.4h-4.4zm0-4.41h4.4v4.4h-4.4zm0-4.4h4.4v4.4h-4.4zm0-4.4h4.4v4.4h-4.4zm0-4.4h4.4v4.4h-4.4zm0-4.41h4.4v4.4h-4.4zm-4.4 44.03h4.4v4.4h-4.4zm0-4.4h4.4v4.4h-4.4zm0-4.4h4.4v4.4h-4.4zm0-4.41h4.4v4.4h-4.4zm0-4.4h4.4v4.4h-4.4zm0-4.4h4.4v4.4h-4.4zm0-4.41h4.4v4.4h-4.4zm0-4.4h4.4v4.4h-4.4zm0-4.4h4.4v4.4h-4.4zm0-4.4h4.4v4.4h-4.4zm0-4.41h4.4v4.4h-4.4z"/>
  <path fill="#ffecad" d="M92.825 22.48h4.4v4.4h-4.4zm0-4.4h4.4v4.4h-4.4zm0-4.4h4.4v4.4h-4.4zm0-4.4h4.4v4.4h-4.4zm0-4.41h4.4v4.4h-4.4zm-4.4 0h4.4v4.4h-4.4z"/>
  <path fill="#ffecad" d="M84.025 4.87h4.4v4.4h-4.4zm-13.21 22.02h4.4v4.4h-4.4zm0-4.41h4.4v4.4h-4.4zm0-4.4h4.4v4.4h-4.4zm0-4.4h4.4v4.4h-4.4zm0-4.4h4.4v4.4h-4.4zm0-4.41h4.4v4.4h-4.4z"/>
  <path fill="#ffecad" d="M66.415 4.87h4.4v4.4h-4.4z"/>
  <path fill="#ffe285" d="M70.815 40.1h4.4v4.4h-4.4zm0-4.41h4.4v4.4h-4.4zm0-4.4h4.4v4.4h-4.4z"/>
  <path fill="#ffe285" d="M66.415 44.5h4.4v4.4h-4.4zm0-4.4h4.4v4.4h-4.4zm0-4.41h4.4v4.4h-4.4zm0-4.4h4.4v4.4h-4.4zm0-4.4h4.4v4.4h-4.4zm0-4.41h4.4v4.4h-4.4zm0-4.4h4.4v4.4h-4.4zm0-4.4h4.4v4.4h-4.4zm0-4.4h4.4v4.4h-4.4zm-4.41 39.62h4.4v4.4h-4.4zm0-4.4h4.4v4.4h-4.4zm0-4.4h4.4v4.4h-4.4zm0-4.41h4.4v4.4h-4.4zm0-4.4h4.4v4.4h-4.4zm0-4.4h4.4v4.4h-4.4zm0-4.41h4.4v4.4h-4.4zm0-4.4h4.4v4.4h-4.4zm0-4.4h4.4v4.4h-4.4zm0-4.4h4.4v4.4h-4.4zm0-4.41h4.4v4.4h-4.4zm-4.4 44.03h4.4v4.4h-4.4zm0-4.4h4.4v4.4h-4.4zm0-4.4h4.4v4.4h-4.4zm0-4.41h4.4v4.4h-4.4zm0-4.4h4.4v4.4h-4.4zm0-4.4h4.4v4.4h-4.4zm0-4.41h4.4v4.4h-4.4zm0-4.4h4.4v4.4h-4.4zm0-4.4h4.4v4.4h-4.4zm0-4.4h4.4v4.4h-4.4zm0-4.41h4.4v4.4h-4.4zm-4.4 61.65h4.4v4.4h-4.4zm0-4.41h4.4v4.4h-4.4zm0-4.4h4.4v4.4h-4.4zM17.975 9.28h4.4v4.4h-4.4zm-4.4 17.61h4.4v4.4h-4.4zm0-22.02h4.4v4.4h-4.4zm-4.4 17.61h4.4v4.4h-4.4zm0-17.61h4.4v4.4h-4.4zm-4.41 0h4.4v4.4h-4.4z"/>
  <path fill="#710000" d="M70.815 84.13h4.4v4.4h-4.4zm0-4.41h4.4v4.4h-4.4z"/>
  <path fill="#710000" d="M66.415 84.13h4.4v4.4h-4.4zm0-8.81h4.4v4.4h-4.4zm-4.41 8.81h4.4v4.4h-4.4zm0-13.21h4.4v4.4h-4.4zm-4.4 13.21h4.4v4.4h-4.4zm0-13.21h4.4v4.4h-4.4zm-4.4 13.21h4.4v4.4h-4.4zm0-13.21h4.4v4.4h-4.4zm-4.41 13.21h4.4v4.4h-4.4zm0-13.21h4.4v4.4h-4.4zm-4.4 13.21h4.4v4.4h-4.4zm0-13.21h4.4v4.4h-4.4zm-4.4 13.21h4.4v4.4h-4.4zm0-13.21h4.4v4.4h-4.4zm-4.41 13.21h4.4v4.4h-4.4zm0-13.21h4.4v4.4h-4.4zm-4.4 13.21h4.4v4.4h-4.4zm0-8.81h4.4v4.4h-4.4zm-4.4 8.81h4.4v4.4h-4.4zm0-4.41h4.4v4.4h-4.4z"/>
</svg>